# AST/ASF file generated using VICON BodyLanguage
# -----------------------------------------------
:version 1.10
:name VICON
:units
  mass 1.0
  length 0.45
  angle deg
:documentation
   .ast/.asf automatically generated from VICON data using
   VICON BodyBuilder and BodyLanguage model FoxedUp or BRILLIANT.MOD
:root
   order TX TY TZ RX RY RZ
   axis XYZ
   position 0 0 0  
   orientation 0 0 0 
:bonedata
  begin
     id 1 
     name lhipjoint
     direction 0.561001 -0.76473 0.316963 
     length 2.4722 
     axis 0 0 0  XYZ
  end
  begin
     id 2 
     name lfemur
     direction 0.34202 -0.939693 0  
     length 7.59403  
     axis 0 0 20  XYZ
    dof rx ry rz
    limits (-160.0 20.0)
           (-70.0 70.0)
           (-60.0 70.0)
  end
  begin
     id 3 
     name ltibia
     direction 0.34202 -0.939693 0   
     length 7.89655   
     axis 0 0 20   XYZ
    dof rx
    limits (-10.0 170.0)
  end
  begin
     id 4 
     name lfoot
     direction 0.061296 -0.168409 0.98381   
     length 2.73287   
     axis -90 7.62852e-016 20   XYZ
    dof rx rz
    limits (-45.0 90.0)
           (-70.0 20.0)
  end
  begin
     id 5 
     name ltoes
     direction 1.53547e-011 -4.21984e-011 1   
     length 1.37057   
     axis -90 7.62852e-016 20   XYZ
    dof rx
    limits (-90.0 20.0)
  end
  begin
     id 6 
     name rhipjoint
     direction -0.559611 -0.765599 0.317323   
     length 2.46939  
     axis 0 0 0  XYZ 
  end
  begin
     id 7 
     name rfemur
     direction -0.34202 -0.939693 0   
     length 7.53712   
     axis 0 0 -20   XYZ
    dof rx ry rz
    limits (-160.0 20.0)
           (-70.0 70.0)
           (-70.0 60.0)
  end
  begin
     id 8 
     name rtibia
     direction -0.34202 -0.939693 0   
     length 8.12549   
     axis 0 0 -20   XYZ
    dof rx
    limits (-10.0 170.0)
 end
 begin
     id 9 
     name rfoot
     direction -0.066984 -0.184037 0.980634   
     length 2.67541  
     axis -90 -7.62852e-016 -20   XYZ
    dof rx rz
    limits (-45.0 90.0)
           (-20.0 70.0)
  end
  begin
     id 10 
     name rtoes
     direction -1.53549e-011 -4.21786e-011 1   
     length 1.34085   
     axis -90 -7.62852e-016 -20   XYZ
    dof rx
    limits (-90.0 20.0)
  end
  begin
     id 11 
     name lowerback
     direction -0.0522728 0.992594 -0.109658   
     length 2.05633   
     axis 0 0 0   XYZ
    dof rx ry rz
    limits (-20.0 45.0)
           (-30.0 30.0)
           (-30.0 30.0)
  end
  begin
     id 12 
     name upperback
     direction 0.00589338 0.999977 0.00335704   
     length 2.05845   
     axis 0 0 0   XYZ
    dof rx ry rz
    limits (-20.0 45.0)
           (-30.0 30.0)
           (-30.0 30.0)
  end
  begin
     id 13 
     name thorax
     direction 0.0292928 0.998059 0.0549487   
     length 2.09281   
     axis 0 0 0   XYZ
    dof rx ry rz
    limits (-20.0 45.0)
           (-30.0 30.0)
           (-30.0 30.0)
  end
  begin
     id 14 
     name lowerneck
     direction 0.0356368 0.980775 0.191858   
     length 1.84767   
     axis 0 0 0   XYZ
    dof rx ry rz
    limits (-20.0 45.0)
           (-30.0 30.0)
           (-30.0 30.0)
  end
  begin
     id 15 
     name upperneck
     direction -0.0227605 0.98931 -0.14404   
     length 1.89582   
     axis 0 0 0   XYZ
    dof rx ry rz
    limits (-20.0 45.0)
           (-30.0 30.0)
           (-30.0 30.0)
  end
  begin
     id 16
     name head
     direction -0.00932985 0.997511 -0.0698904  
     length 1.90213  
     axis 0 0 0   XYZ
    dof rx ry rz
    limits (-20.0 45.0)
           (-30.0 30.0)
           (-30.0 30.0)
  end
  begin
     id 17 
     name lclavicle
     direction 0.873442 0.479511 0.0846686  
     length 3.41193  
     axis 0 0 0   XYZ
    dof ry rz
    limits (-20.0 10.0)
           (0.0 20.0)
  end
  begin
     id 18 
     name lhumerus
     direction 1 -4.4897e-011 -5.62117e-018   
     length 5.59864   
     axis 180 -30 -90   XYZ
    dof rx ry rz
    limits (-60.0 90.0)
           (-90.0 90.0)
           (-90.0 90.0)
  end
  begin
     id 19
     name lradius
     direction 1 -4.48966e-011 -6.26295e-027   
     length 3.59542   
     axis 180 -30 -90   XYZ
    dof rx
    limits (-10.0 170.0)
  end
  begin
     id 20
     name lwrist
     direction 1 -4.48947e-011 -1.74096e-026   
     length 1.79771   
     axis 1.04567e-014 90 90   XYZ
    dof ry
    limits (-180.0 0.0)
 end
  begin
     id 21 
     name lhand
     direction 1 -4.49085e-011 -3.48469e-026   
     length 0.572014   
     axis 2.22196e-014 90 90   XYZ
    dof rx rz
    limits (-90.0 90.0)
           (-45.0 45.0)
  end
  begin
     id 22 
     name lfingers
     direction 1 -4.48884e-011 -6.96135e-026   
     length 0.461173   
     axis 4.44383e-014 90 90   XYZ
    dof rx
    limits (0.0 90.0)
  end
  begin
     id 23
     name lthumb
     direction 0.707107 -6.34976e-011 0.707107   
     length 0.662154   
     axis -90 45 -5.4397e-014   XYZ
    dof rx rz
    limits (-45.0 45.0)
           (-45.0 45.0)
  end
  begin
     id 24 
     name rclavicle
     direction -0.890242 0.443271 0.104786   
     length 3.46753  
     axis 0 0 0   XYZ 
    dof ry rz
    limits (-10.0 20.0)
           (-20.0 0.0)
  end
  begin
     id 25 
     name rhumerus
     direction -1 -4.48963e-011 -5.41723e-018  
     length 5.8094   
     axis 180 30 90   XYZ
    dof rx ry rz
    limits (-90.0 60.0)
           (-90.0 90.0)
           (-90.0 90.0)
  end
  begin
     id 26 
     name rradius
     direction -1 -4.48958e-011 -6.51059e-027   
     length 3.66953   
     axis 180 30 90   XYZ
    dof rx
    limits (-10.0 170.0)
  end
  begin
     id 27 
     name rwrist
     direction -1 -4.48975e-011 -1.74124e-026   
     length 1.83476   
     axis 1.04567e-014 -90 -90   XYZ
    dof ry
    limits (-180.0 0.0)
  end
  begin
     id 28
     name rhand
     direction -1 -4.49013e-011 -3.48326e-026   
     length 0.57843   
     axis 2.22196e-014 -90 -90   XYZ
    dof rx rz
    limits (-90.0 90.0)
           (-45.0 45.0)
  end
  begin
     id 29
     name rfingers
     direction -1 -4.49023e-011 -6.9669e-026   
     length 0.466345   
     axis 4.44383e-014 -90 -90   XYZ
    dof rx
    limits (0.0 90.0)
  end
  begin
     id 30
     name rthumb
     direction -0.707107 -6.34926e-011 0.707107   
     length 0.669581   
     axis -90 -45 5.4397e-014   XYZ
    dof rx rz
    limits (-45.0 45.0)
           (-45.0 45.0)
  end
:hierarchy
  begin
    root lhipjoint rhipjoint lowerback
    lhipjoint lfemur
    lfemur ltibia
    ltibia lfoot
    lfoot ltoes
    rhipjoint rfemur
    rfemur rtibia
    rtibia rfoot
    rfoot rtoes
    lowerback upperback
    upperback thorax
    thorax lowerneck lclavicle rclavicle
    lowerneck upperneck
    upperneck head
    lclavicle lhumerus
    lhumerus lradius
    lradius lwrist
    lwrist lhand lthumb
    lhand lfingers
    rclavicle rhumerus
    rhumerus rradius
    rradius rwrist
    rwrist rhand rthumb
    rhand rfingers
  end

#!OML:ASF H:\SkateBoarding\Project 1\Capture day 1\Session 1\Skater.ASF
:FULLY-SPECIFIED
:DEGREES
211
root 3.44875 15.1538 12.5048 10.1616 69.5685 -3.17987
lowerback 25.9646 -0.503791 -3.83054
upperback 4.51158 -1.35445 0.554198
thorax -9.28809 -0.401593 3.25234
lowerneck -21.0769 -11.0799 -4.11447
upperneck 27.5911 -17.4894 10.0338
head 14.3483 -6.55647 1.34287
rclavicle 1.35174e-014 -4.85035e-014
rhumerus -31.4529 7.78433 -85.7027
rradius 43.7861
rwrist -1.16564
rhand -41.0261 16.8889
rfingers 7.12502
rthumb -13.9568 -12.6226
lclavicle 1.35174e-014 -4.85035e-014
lhumerus -36.8226 -21.1494 80.643
lradius 80.1806
lwrist 43.6698
lhand -25.6829 28.5738
lfingers 7.12502
lthumb 0.852056 58.5518
rfemur -70.6294 -3.24738 14.9596
rtibia 101.706
rfoot -29.5792 30.4706
rtoes -2.86511
lfemur -63.5241 11.3376 -5.81642
ltibia 107.191
lfoot -42.4401 -20.2702
ltoes -28.0435
212
root 3.43363 15.0409 12.7568 10.0187 69.335 -3.23082
lowerback 26.0537 -0.467052 -3.87065
upperback 4.56036 -1.32463 0.488917
thorax -9.28196 -0.387031 3.19396
lowerneck -21.3085 -11.0031 -4.06961
upperneck 27.8511 -17.4007 9.94774
head 14.4882 -6.49818 1.31094
rclavicle 2.3059e-014 4.29375e-014
rhumerus -30.8969 7.72647 -85.6757
rradius 43.1198
rwrist -0.665299
rhand -41.3513 17.2563
rfingers 7.12502
rthumb -14.2701 -12.2334
lclavicle 2.3059e-014 4.29375e-014
lhumerus -36.636 -20.9761 80.2744
lradius 79.7881
lwrist 43.6978
lhand -25.7818 28.7201
lfingers 7.12502
lthumb 0.756458 58.6985
rfemur -71.2778 -3.36199 14.9788
rtibia 102.828
rfoot -29.6889 30.5595
rtoes -3.26481
lfemur -63.9388 11.8473 -5.65363
ltibia 108.272
lfoot -42.4669 -20.7054
ltoes -28.0138
213
root 3.42272 14.9322 13.0081 9.90175 69.0399 -3.25318
lowerback 26.0695 -0.420851 -3.95945
upperback 4.61321 -1.29265 0.433422
thorax -9.23203 -0.371575 3.17203
lowerneck -21.506 -10.9283 -4.02044
upperneck 28.078 -17.3047 9.84009
head 14.603 -6.44369 1.27308
rclavicle -7.87187e-014 3.61788e-014
rhumerus -30.222 7.52258 -85.6296
rradius 42.3184
rwrist 0.0274156
rhand -41.4544 17.5303
rfingers 7.12502
rthumb -14.3695 -11.9524
lclavicle -7.87187e-014 3.61788e-014
lhumerus -36.4364 -20.7431 79.9088
lradius 79.3993
lwrist 43.8865
lhand -25.8073 28.6907
lfingers 7.12502
lthumb 0.731895 58.6692
rfemur -71.8818 -3.42697 14.9729
rtibia 103.907
rfoot -29.6299 30.7992
rtoes -3.50526
lfemur -64.281 12.3731 -5.47967
ltibia 109.328
lfoot -42.4711 -21.1927
ltoes -27.9547
214
root 3.4085 14.8317 13.2631 9.78679 68.8185 -3.23476
lowerback 26.1485 -0.373711 -4.05459
upperback 4.66666 -1.26351 0.369638
thorax -9.21367 -0.356011 3.14685
lowerneck -21.5615 -10.8831 -4.08916
upperneck 28.2064 -17.2543 9.90545
head 14.6841 -6.40898 1.31787
rclavicle 3.22031e-014 -2.14687e-014
rhumerus -29.6808 7.68291 -85.5373
rradius 41.7261
rwrist 0.293228
rhand -41.6909 17.7663
rfingers 7.12502
rthumb -14.5974 -11.7
lclavicle 3.22031e-014 -2.14687e-014
lhumerus -36.1938 -20.5092 79.5239
lradius 79.0394
lwrist 44.0886
lhand -25.7731 28.6973
lfingers 7.12502
lthumb 0.764879 58.6756
rfemur -72.3767 -3.4546 14.9601
rtibia 104.922
rfoot -29.4849 31.1136
rtoes -3.1504
lfemur -64.5591 12.8249 -5.27978
ltibia 110.292
lfoot -42.3843 -21.6428
ltoes -27.9967
215
root 3.39523 14.7351 13.5155 9.72054 68.663 -3.14971
lowerback 26.2324 -0.35814 -4.08933
upperback 4.71827 -1.26045 0.288826
thorax -9.19983 -0.354358 3.07648
lowerneck -21.5779 -10.8631 -4.2235
upperneck 28.2987 -17.2369 10.042
head 14.7607 -6.38923 1.39554
rclavicle -1.63003e-014 1.51076e-014
rhumerus -29.0862 7.66878 -85.4184
rradius 41.0836
rwrist 0.740871
rhand -41.7501 18.1294
rfingers 7.12502
rthumb -14.6544 -11.3327
lclavicle -1.63003e-014 1.51076e-014
lhumerus -35.9379 -20.3974 79.107
lradius 78.7483
lwrist 44.4213
lhand -25.7524 28.8467
lfingers 7.12502
lthumb 0.784911 58.825
rfemur -72.8393 -3.66559 14.9991
rtibia 105.903
rfoot -29.4085 31.2878
rtoes -3.10551
lfemur -64.8365 13.1575 -5.0779
ltibia 111.207
lfoot -42.2355 -22.0072
ltoes -28.0169
216
root 3.38452 14.6439 13.7713 9.52838 68.4711 -3.25324
lowerback 26.2121 -0.306613 -4.1367
upperback 4.76609 -1.20793 0.245282
thorax -9.13948 -0.330687 3.03662
lowerneck -21.686 -10.8097 -4.14922
upperneck 28.4279 -17.1852 9.98899
head 14.8226 -6.35344 1.37025
rclavicle -1.04958e-013 4.41302e-014
rhumerus -28.367 7.19423 -85.3437
rradius 40.2384
rwrist 1.57247
rhand -41.999 18.5635
rfingers 7.12502
rthumb -14.8942 -10.8811
lclavicle -1.04958e-013 4.41302e-014
lhumerus -35.6084 -20.3011 78.6979
lradius 78.4499
lwrist 44.8804
lhand -25.9186 28.9572
lfingers 7.12502
lthumb 0.624377 58.936
rfemur -73.3032 -3.73871 15.0995
rtibia 106.823
rfoot -29.1986 31.5411
rtoes -3.13823
lfemur -65.0667 13.5947 -4.76627
ltibia 112.042
lfoot -42.0025 -22.6156
ltoes -27.7242
217
root 3.37425 14.5626 14.027 9.23868 68.3535 -3.44683
lowerback 26.2187 -0.303622 -4.04143
upperback 4.79923 -1.18466 0.166315
thorax -9.11184 -0.324092 2.88553
lowerneck -21.7088 -10.7702 -4.16782
upperneck 28.5467 -17.1669 10.0773
head 14.8943 -6.32553 1.41207
rclavicle -5.04913e-014 1.63003e-014
rhumerus -27.7515 7.01804 -85.2307
rradius 39.5649
rwrist 2.08345
rhand -42.3226 18.8302
rfingers 7.12502
rthumb -15.2059 -10.591
lclavicle -5.04913e-014 1.63003e-014
lhumerus -35.2519 -20.2893 78.195
lradius 78.1627
lwrist 45.2895
lhand -25.9705 29.0314
lfingers 7.12502
lthumb 0.574248 59.0103
rfemur -73.7237 -3.86856 15.2858
rtibia 107.702
rfoot -29.2467 31.5788
rtoes -3.4871
lfemur -65.2826 13.9169 -4.3814
ltibia 112.781
lfoot -41.7202 -23.0945
ltoes -27.7347
